<svg width="1440" height="265" viewBox="0 0 1440 265" fill="none" xmlns="http://www.w3.org/2000/svg">
<path d="M0 178.2L6.2 188.131C12.3 197.691 25 218.109 37 232.681C49.2 247.809 62 257.091 74 242.519C86.2 227.391 98 188.409 111 188.131C123.1 188.409 135 227.391 148 207.9C160 188.409 172 108.591 185 64.3191C196.9 19.4906 209 10.2094 222 49.4691C233.8 89.1 246 178.2 258 222.75C270.8 267.3 283 267.3 295 262.381C307.7 257.091 320 247.809 332 222.75C344.6 197.691 357 158.709 369 148.5C381.5 138.291 394 158.709 406 173.281C418.5 188.409 431 197.691 443 173.281C455.4 148.5 468 89.1 480 74.25C492.3 59.4 505 89.1 517 89.1C529.2 89.1 542 59.4 554 54.4809C566.2 49.1906 578 69.6094 591 103.95C603.1 138.291 615 188.409 628 202.981C640 218.109 652 197.691 665 178.2C676.9 158.709 689 138.291 702 108.869C713.8 78.8906 726 39.9094 738 34.6191C750.8 29.7 763 59.4 775 108.869C787.7 158.709 800 227.391 812 227.669C824.6 227.391 837 158.709 849 148.5C861.5 138.291 874 188.409 886 193.05C898.5 197.691 911 158.709 923 138.569C935.4 118.8 948 118.8 960 103.95C972.3 89.1 985 59.4 997 74.25C1009.2 89.1 1022 148.5 1034 188.131C1046.2 227.391 1058 247.809 1071 252.45C1083.1 257.091 1095 247.809 1108 212.819C1120 178.2 1132 118.8 1145 123.719C1156.9 129.009 1169 197.691 1182 222.75C1193.8 247.809 1206 227.391 1218 207.9C1230.8 188.409 1243 167.991 1255 183.119C1267.7 197.691 1280 247.809 1292 237.6C1304.6 227.391 1317 158.709 1329 148.5C1341.5 138.291 1354 188.409 1366 178.2C1378.5 167.991 1391 99.3094 1403 94.0191C1415.4 89.1 1428 148.5 1434 178.2L1440 207.9V0H1433.8C1427.7 0 1415 0 1403 0C1390.8 0 1378 0 1366 0C1353.8 0 1342 0 1329 0C1316.9 0 1305 0 1292 0C1280 0 1268 0 1255 0C1243.1 0 1231 0 1218 0C1206.2 0 1194 0 1182 0C1169.2 0 1157 0 1145 0C1132.3 0 1120 0 1108 0C1095.4 0 1083 0 1071 0C1058.5 0 1046 0 1034 0C1021.5 0 1009 0 997 0C984.6 0 972 0 960 0C947.7 0 935 0 923 0C910.8 0 898 0 886 0C873.8 0 862 0 849 0C836.9 0 825 0 812 0C800 0 788 0 775 0C763.1 0 751 0 738 0C726.2 0 714 0 702 0C689.2 0 677 0 665 0C652.3 0 640 0 628 0C615.4 0 603 0 591 0C578.5 0 566 0 554 0C541.5 0 529 0 517 0C504.6 0 492 0 480 0C467.7 0 455 0 443 0C430.8 0 418 0 406 0C393.8 0 382 0 369 0C356.9 0 345 0 332 0C320 0 308 0 295 0C283.1 0 271 0 258 0C246.2 0 234 0 222 0C209.2 0 197 0 185 0C172.3 0 160 0 148 0C135.4 0 123 0 111 0C98.5 0 86 0 74 0C61.5 0 49 0 37 0C24.6 0 12 0 6 0H0V178.2Z" fill="#192734"/>
</svg>
