<svg width="74" height="74" viewBox="0 0 74 74" fill="none" xmlns="http://www.w3.org/2000/svg">
<path d="M29.3471 67.8333C27.8363 62.9062 25.5577 59.2339 22.5098 56.815C17.9388 53.1875 10.676 55.443 7.99351 51.6998C5.31101 47.9566 9.8728 41.0746 11.4731 37.0139C13.0748 32.9531 5.33722 31.5178 6.24064 30.3647C6.84189 29.5954 10.7531 27.3785 17.9712 23.7108C20.0216 12.0142 27.5958 6.16667 40.6969 6.16667C60.347 6.16667 67.8333 22.8259 67.8333 33.4233C67.8333 44.0192 58.7683 55.4337 45.8553 57.8958C44.7006 59.5762 46.3656 62.8908 50.8503 67.8349" stroke="white" stroke-width="4.667" stroke-linecap="round" stroke-linejoin="round"/>
<path d="M30.0625 22.3542C29.0542 26.2607 29.3533 29.0049 30.9613 30.5836C32.5677 32.1638 35.3057 33.1967 39.1753 33.6823C38.2965 38.7236 39.368 41.087 42.3866 40.7755C45.4051 40.4641 47.2197 39.2107 47.8286 37.0139C52.5461 38.3397 55.1038 37.2297 55.5 33.6839C56.0935 28.3651 53.226 24.124 52.0497 24.124C50.875 24.124 47.8286 23.9806 47.8286 22.3542C47.8286 20.7277 44.2705 19.8104 41.0592 19.8104C37.8479 19.8104 39.7796 17.6444 35.3704 18.5C32.4305 19.0704 30.6606 20.3546 30.0625 22.3542V22.3542Z" stroke="white" stroke-width="4" stroke-linejoin="round"/>
<path d="M47.0208 39.3125C45.453 40.2853 43.3023 41.9025 42.3958 43.1667C40.1311 46.3271 38.295 48.2495 37.8942 50.2707" stroke="white" stroke-width="4" stroke-linecap="round"/>
</svg>
