<svg width="35" height="34" viewBox="0 0 35 34" fill="none" xmlns="http://www.w3.org/2000/svg">
<path d="M22.9265 10.6393L23.0419 10.8771L23.3033 10.9158L33.794 12.4668C33.7943 12.4668 33.7945 12.4668 33.7948 12.4669C34.2426 12.5349 34.5606 12.9592 34.4902 13.4234L34.4902 13.4234L34.4894 13.4288C34.4634 13.6138 34.3779 13.7829 34.2481 13.9127C34.2478 13.913 34.2475 13.9132 34.2472 13.9135L26.6568 21.4416L26.4727 21.6241L26.5158 21.8798L28.3093 32.5111L28.3094 32.5115C28.3885 32.978 28.0794 33.4091 27.6374 33.4866L27.6367 33.4868C27.4608 33.5179 27.2781 33.4889 27.123 33.4049L27.1207 33.4037L17.7359 28.3844L17.5001 28.2583L17.2643 28.3844L7.87945 33.4037L7.87868 33.4041C7.74373 33.4766 7.59219 33.5089 7.44106 33.4979C7.28992 33.4869 7.14403 33.4331 7.02003 33.3415C6.89593 33.2498 6.79848 33.1237 6.73984 32.9768C6.68118 32.8298 6.66405 32.6686 6.69072 32.5118L6.69083 32.5111L8.48432 21.8798L8.52745 21.6241L8.34338 21.4416L0.75205 13.9126L0.752018 13.9126C0.594627 13.7565 0.503033 13.5415 0.500074 13.3142C0.497119 13.0872 0.582854 12.8699 0.735872 12.7096C0.863496 12.5774 1.02725 12.4928 1.20331 12.4672L1.20453 12.467L11.6968 10.9158L11.9583 10.8771L12.0736 10.6393L16.7628 0.968844C16.7629 0.968558 16.7631 0.968273 16.7632 0.967987C16.9703 0.54775 17.464 0.385461 17.8625 0.585562L17.8631 0.585855C18.0236 0.666217 18.1554 0.799385 18.236 0.966013L18.2362 0.966442L22.9265 10.6393Z" fill="white" stroke="black"/>
</svg>
