<svg width="37" height="37" viewBox="0 0 37 37" fill="none" xmlns="http://www.w3.org/2000/svg">
<g clip-path="url(#clip0)">
<path d="M36.361 23.2918C33.9452 32.9831 24.1262 38.8744 14.4487 36.4585C4.75704 34.0427 -1.13423 24.2242 1.28169 14.5468C3.69747 4.85543 13.5021 -1.03584 23.1938 1.38008C32.8713 3.78174 38.7769 13.6002 36.361 23.2918Z" fill="#23313E"/>
<path d="M27.4297 16.6661C27.7829 14.2647 25.9606 12.9651 23.4463 12.1035L24.2656 8.84041L22.288 8.34601L21.4969 11.5243C20.9743 11.3972 20.4375 11.27 19.9007 11.157L20.6918 7.96462L18.7142 7.47021L17.909 10.7191C17.4711 10.6203 17.0473 10.5214 16.6377 10.4225V10.4084L13.8973 9.73033L13.3746 11.8492C13.3746 11.8492 14.8437 12.1882 14.8155 12.2023C15.6206 12.4001 15.7619 12.9369 15.7336 13.3606L14.8013 17.0757C14.8578 17.0898 14.9285 17.104 15.0132 17.1463C14.9426 17.1322 14.872 17.1181 14.8013 17.0898L13.5018 22.2881C13.4029 22.5282 13.1486 22.8955 12.5977 22.7542C12.6118 22.7825 11.1569 22.4011 11.1569 22.4011L10.1681 24.6753L12.7531 25.3251C13.2334 25.4523 13.6995 25.5653 14.1657 25.6924L13.3464 28.9837L15.324 29.4781L16.1433 26.215C16.68 26.3563 17.2168 26.4976 17.7254 26.6247L16.9202 29.8736L18.8978 30.368L19.7171 27.0767C23.1073 27.7124 25.6499 27.4581 26.7093 24.3928C27.571 21.935 26.6669 20.5083 24.8871 19.576C26.2008 19.2793 27.1755 18.4177 27.4297 16.6661ZM22.8954 23.0226C22.288 25.4805 18.135 24.1527 16.7931 23.8137L17.8807 19.4488C19.2227 19.7878 23.5451 20.4518 22.8954 23.0226ZM23.5169 16.6237C22.9519 18.8697 19.5052 17.7255 18.3893 17.443L19.3781 13.4878C20.494 13.7703 24.0961 14.2929 23.5169 16.6237Z" fill="#C1CCD4"/>
</g>
<defs>
<clipPath id="clip0">
<rect width="36.1618" height="36.1618" fill="white" transform="translate(0.739868 0.838135)"/>
</clipPath>
</defs>
</svg>
