<svg width="34" height="35" viewBox="0 0 34 35" fill="none" xmlns="http://www.w3.org/2000/svg">
<g opacity="0.2" clip-path="url(#clip0)">
<path fill-rule="evenodd" clip-rule="evenodd" d="M16.9017 0.4104C7.56353 0.4104 0 7.97393 0 17.3121C0 24.7911 4.83812 31.1082 11.5566 33.3477C12.4016 33.4955 12.7186 32.9885 12.7186 32.5448C12.7186 32.1434 12.6974 30.8124 12.6974 29.3969C8.45087 30.1786 7.35225 28.3616 7.01422 27.4109C6.82407 26.925 6.00012 25.425 5.28179 25.0235C4.69023 24.7066 3.84514 23.9249 5.26066 23.9038C6.59168 23.8827 7.5424 25.1292 7.85931 25.6362C9.38046 28.1926 11.8101 27.4743 12.7819 27.0306C12.9298 25.932 13.3735 25.1926 13.8594 24.77C10.0988 24.3475 6.16913 22.8897 6.16913 16.4248C6.16913 14.5867 6.82408 13.0656 7.90156 11.8825C7.73254 11.4599 7.14098 9.72748 8.07058 7.40349C8.07058 7.40349 9.4861 6.95982 12.7186 9.13592C14.0707 8.75563 15.5073 8.56549 16.944 8.56549C18.3806 8.56549 19.8173 8.75563 21.1694 9.13592C24.4019 6.93869 25.8174 7.40349 25.8174 7.40349C26.747 9.72748 26.1554 11.4599 25.9864 11.8825C27.0639 13.0656 27.7188 14.5656 27.7188 16.4248C27.7188 22.9108 23.7681 24.3475 20.0074 24.77C20.6201 25.2982 21.1483 26.3123 21.1483 27.8968C21.1483 30.1574 21.1272 31.9744 21.1272 32.5448C21.1272 32.9885 21.4441 33.5167 22.2892 33.3477C25.6444 32.2148 28.56 30.0584 30.6255 27.1819C32.691 24.3053 33.8025 20.8534 33.8035 17.3121C33.8035 7.97393 26.2399 0.4104 16.9017 0.4104Z" fill="#C1CCD4"/>
</g>
<defs>
<clipPath id="clip0">
<rect width="33.8035" height="33.8035" fill="white" transform="translate(0 0.4104)"/>
</clipPath>
</defs>
</svg>
