<svg width="35" height="35" viewBox="0 0 35 35" fill="none" xmlns="http://www.w3.org/2000/svg">
<path d="M34.5215 30.2627L27.7061 23.4473C27.3984 23.1396 26.9814 22.9688 26.5439 22.9688H25.4297C27.3164 20.5557 28.4375 17.5205 28.4375 14.2188C28.4375 6.36426 22.0732 0 14.2187 0C6.36426 0 0 6.36426 0 14.2188C0 22.0732 6.36426 28.4375 14.2187 28.4375C17.5205 28.4375 20.5557 27.3164 22.9687 25.4297V26.5439C22.9687 26.9814 23.1396 27.3984 23.4473 27.7061L30.2627 34.5215C30.9053 35.1641 31.9443 35.1641 32.5801 34.5215L34.5146 32.5869C35.1572 31.9443 35.1572 30.9053 34.5215 30.2627ZM14.2187 22.9688C9.38574 22.9688 5.46875 19.0586 5.46875 14.2188C5.46875 9.38574 9.37891 5.46875 14.2187 5.46875C19.0518 5.46875 22.9687 9.37891 22.9687 14.2188C22.9687 19.0518 19.0586 22.9688 14.2187 22.9688Z" fill="#C1CCD4"/>
</svg>
