<svg width="37" height="37" viewBox="0 0 37 37" fill="none" xmlns="http://www.w3.org/2000/svg">
<g clip-path="url(#clip0)">
<path d="M18.9191 0.838135C8.93316 0.838135 0.838135 8.93316 0.838135 18.9191C0.838135 28.905 8.93316 37 18.9191 37C28.905 37 37 28.905 37 18.9191C37 8.93316 28.905 0.838135 18.9191 0.838135Z" fill="#2C3946"/>
<path d="M27.717 11.2389L24.4874 27.5215C24.4874 27.5215 24.0358 28.6507 22.7937 28.1087L15.3413 22.3951L12.6314 21.0854L8.06966 19.5496C8.06966 19.5496 7.36959 19.3013 7.30179 18.7593C7.23399 18.2173 8.09226 17.9238 8.09226 17.9238L26.2263 10.8101C26.2263 10.8101 27.7168 10.1552 27.7168 11.2392" fill="white"/>
<path d="M14.7686 27.3384C14.7686 27.3384 14.5511 27.3181 14.2799 26.4598C14.0091 25.6017 12.6314 21.0851 12.6314 21.0851L23.5842 14.1296C23.5842 14.1296 24.2166 13.7457 24.194 14.1296C24.194 14.1296 24.3069 14.1974 23.968 14.5136C23.6294 14.8298 15.364 22.2595 15.364 22.2595" fill="#D2E5F1"/>
<path d="M18.1988 24.5856L15.2512 27.2732C15.2512 27.2732 15.0206 27.4481 14.7686 27.3385L15.3331 22.3464" fill="#B5CFE4"/>
</g>
<defs>
<clipPath id="clip0">
<rect width="36.1618" height="36.1618" fill="white" transform="translate(0.838135 0.838135)"/>
</clipPath>
</defs>
</svg>
