<svg width="1440" height="211" viewBox="0 0 1440 211" fill="none" xmlns="http://www.w3.org/2000/svg">
<g filter="url(#filter0_d)">
<path fill-rule="evenodd" clip-rule="evenodd" d="M1440 16.2431L1395.61 11.2796C1342.34 6.31618 1244.68 -3.61069 1147.02 1.35275C1049.37 6.31619 951.707 21.2065 854.049 50.9871C756.39 80.7678 667.61 115.512 569.951 135.366C472.293 155.219 374.634 160.183 276.976 155.219C179.317 150.256 81.6584 145.292 28.3901 140.329L-16 135.366V185H28.3901C81.6584 185 179.317 185 276.976 185C374.634 185 472.293 185 569.951 185C667.61 185 756.39 185 854.049 185C951.707 185 1049.37 185 1147.02 185C1244.68 185 1342.34 185 1395.61 185H1440V16.2431Z" fill="#192734"/>
</g>
<defs>
<filter id="filter0_d" x="-24" y="0" width="1472" height="211" filterUnits="userSpaceOnUse" color-interpolation-filters="sRGB">
<feFlood flood-opacity="0" result="BackgroundImageFix"/>
<feColorMatrix in="SourceAlpha" type="matrix" values="0 0 0 0 0 0 0 0 0 0 0 0 0 0 0 0 0 0 127 0" result="hardAlpha"/>
<feOffset dy="18"/>
<feGaussianBlur stdDeviation="4"/>
<feComposite in2="hardAlpha" operator="out"/>
<feColorMatrix type="matrix" values="0 0 0 0 0 0 0 0 0 0 0 0 0 0 0 0 0 0 0.1 0"/>
<feBlend mode="normal" in2="BackgroundImageFix" result="effect1_dropShadow"/>
<feBlend mode="normal" in="SourceGraphic" in2="effect1_dropShadow" result="shape"/>
</filter>
</defs>
</svg>
