<svg width="1440" height="184" viewBox="0 0 1440 184" fill="none" xmlns="http://www.w3.org/2000/svg">
<path fill-rule="evenodd" clip-rule="evenodd" d="M0 167.845L43.9024 172.781C96.5854 177.718 193.171 187.591 289.756 182.655C386.341 177.718 482.927 162.908 579.512 133.288C676.098 103.669 763.902 69.1125 860.488 49.3661C957.073 29.6197 1053.66 24.6831 1150.24 29.6197C1246.83 34.5563 1343.41 39.4929 1396.1 44.4295L1440 49.3661V0H1396.1C1343.41 0 1246.83 0 1150.24 0C1053.66 0 957.073 0 860.488 0C763.902 0 676.098 0 579.512 0C482.927 0 386.341 0 289.756 0C193.171 0 96.5854 0 43.9024 0H0V167.845Z" fill="#192734"/>
</svg>
